<?xml version="1.0" encoding="utf-8"?>
<!-- Generator: Adobe Illustrator 22.1.0, SVG Export Plug-In . SVG Version: 6.00 Build 0)  -->
<svg version="1.1" id="Layer_1" xmlns="http://www.w3.org/2000/svg" xmlns:xlink="http://www.w3.org/1999/xlink" x="0px" y="0px"
	 viewBox="0 0 32 32" style="enable-background:new 0 0 32 32;" xml:space="preserve">
<title>kubernetes</title>
<path d="M13.6,19.1L13.6,19.1l-1.3,3.2c-1.3-0.8-2.3-2-2.8-3.5l3.4-0.6l0,0C13.4,18.2,13.8,18.7,13.6,19.1L13.6,19.1z M12.5,16.3
	c0.5-0.1,0.6-0.7,0.2-1l0,0l-2.6-2.3c-0.8,1.3-1.1,2.8-1,4.3L12.5,16.3L12.5,16.3z M14,13.7c0.4,0.3,0.9,0,0.9-0.5l0,0l0.2-3.5
	c-1.5,0.2-2.9,0.9-4,1.9L14,13.7L14,13.7z M15,17.3l1,0.5l1-0.5l0.2-1l-0.7-0.8h-1.1l-0.7,0.8L15,17.3z M17,13.2
	c0,0.5,0.6,0.7,0.9,0.4l0,0l2.8-2c-1.1-1.1-2.5-1.7-4-1.9L17,13.2L17,13.2z M31.5,21.2l-7.7,9.6c-0.4,0.5-1,0.8-1.7,0.8l-12.3,0
	c-0.6,0-1.3-0.3-1.7-0.8l-7.7-9.6c-0.4-0.5-0.6-1.2-0.4-1.8L2.8,7.4C2.9,6.8,3.4,6.3,4,6l11.1-5.3c0.6-0.3,1.3-0.3,1.8,0L28,6
	c0.6,0.3,1,0.8,1.2,1.4L32,19.4C32.1,20,31.9,20.7,31.5,21.2L31.5,21.2z M27.2,18.4c-0.1,0-0.1,0-0.2,0c-0.2,0-0.4,0-0.6,0
	c-0.5-0.1-0.8-0.1-1.2-0.2c-0.1-0.1-0.2-0.2-0.3-0.3l-0.3-0.1c0.1-1,0.1-2.1-0.1-3.1c-0.2-1-0.7-2-1.2-2.9c0.1-0.1,0.2-0.2,0.2-0.2
	c0-0.1,0-0.2,0.1-0.4c0.3-0.3,0.6-0.5,1-0.7c0.2-0.1,0.4-0.2,0.6-0.3c0,0,0.1-0.1,0.1-0.1c0.3-0.2,0.4-0.7,0.2-1s-0.7-0.3-1-0.1
	c0,0-0.1,0.1-0.2,0.1c-0.2,0.2-0.3,0.3-0.4,0.5c-0.3,0.3-0.6,0.6-0.9,0.8c-0.1,0.1-0.3,0.1-0.4,0l-0.3,0.2c-1.5-1.5-3.4-2.5-5.5-2.7
	l0-0.3c-0.1-0.1-0.2-0.2-0.2-0.3c0-0.4,0-0.7,0.1-1.2c0-0.2,0.1-0.4,0.1-0.6c0-0.1,0-0.1,0-0.2c0-0.4-0.3-0.7-0.7-0.7
	c-0.4,0-0.7,0.3-0.7,0.7v0c0,0.1,0,0.1,0,0.2c0,0.2,0.1,0.4,0.1,0.6c0.1,0.5,0.1,0.8,0.1,1.2c0,0.1-0.1,0.3-0.2,0.3l0,0.3
	c-2.1,0.2-4.1,1.1-5.6,2.7c-0.1-0.1-0.2-0.1-0.2-0.2c-0.1,0-0.2,0.1-0.4,0c-0.3-0.2-0.6-0.5-0.9-0.8C8,9.4,7.9,9.3,7.7,9.1
	c0,0-0.1-0.1-0.1-0.1C7.5,8.9,7.3,8.8,7.1,8.8c-0.2,0-0.4,0.1-0.5,0.2c-0.2,0.3-0.2,0.7,0.2,1l0,0l0.1,0.1c0.2,0.1,0.4,0.2,0.6,0.3
	c0.4,0.3,0.7,0.5,1,0.7c0.1,0.1,0.1,0.3,0.1,0.4l0.2,0.2c-1.2,1.8-1.7,3.9-1.4,6l-0.3,0.1c-0.1,0.1-0.2,0.2-0.3,0.3
	c-0.3,0.1-0.7,0.1-1.2,0.2c-0.2,0-0.4,0-0.6,0.1c-0.1,0-0.1,0-0.2,0l0,0h0c-0.4,0.1-0.6,0.5-0.6,0.8c0.1,0.4,0.5,0.6,0.9,0.5h0l0,0
	l0.2,0c0.2-0.1,0.4-0.2,0.6-0.2c0.4-0.2,0.8-0.3,1.2-0.3c0.1,0,0.3,0.1,0.4,0.1l0.3,0c0.7,2,2,3.7,3.8,4.8l-0.1,0.3
	c0,0.1,0.1,0.3,0.1,0.4c-0.1,0.3-0.3,0.7-0.6,1.1c-0.1,0.2-0.3,0.3-0.4,0.5c0,0.1-0.1,0.1-0.1,0.2c-0.2,0.4,0,0.8,0.3,0.9
	c0.3,0.2,0.7,0,0.9-0.4c0-0.1,0.1-0.1,0.1-0.2c0.1-0.2,0.1-0.4,0.2-0.6c0.2-0.4,0.3-0.9,0.5-1.2c0.1-0.1,0.2-0.1,0.3-0.1l0.2-0.3
	c2,0.8,4.2,0.8,6.1,0l0.1,0.3c0.1,0,0.2,0.1,0.3,0.2c0.2,0.3,0.3,0.7,0.5,1.1c0.1,0.2,0.1,0.4,0.2,0.6c0,0,0.1,0.1,0.1,0.2
	c0.2,0.4,0.6,0.5,0.9,0.4c0.3-0.2,0.5-0.6,0.3-0.9c0-0.1-0.1-0.1-0.1-0.2c-0.1-0.2-0.2-0.3-0.4-0.5c-0.3-0.4-0.5-0.7-0.6-1.1
	c-0.1-0.2,0-0.3,0.1-0.4c0,0-0.1-0.2-0.1-0.3c1.8-1.1,3.2-2.8,3.8-4.8c0.1,0,0.2,0,0.3,0.1c0.1-0.1,0.2-0.2,0.4-0.1
	c0.4,0.1,0.7,0.2,1.2,0.3c0.2,0.1,0.4,0.2,0.6,0.2c0,0,0.1,0,0.2,0l0,0h0c0.4,0.1,0.8-0.1,0.9-0.5C27.8,18.9,27.5,18.5,27.2,18.4
	L27.2,18.4z M21.9,12.9l-2.6,2.3v0c-0.4,0.3-0.2,0.9,0.2,1l0,0l3.4,1c0.1-0.7,0-1.5-0.1-2.2C22.6,14.3,22.3,13.6,21.9,12.9
	L21.9,12.9z M16.5,20c-0.1-0.2-0.3-0.3-0.5-0.3c-0.2,0-0.4,0.1-0.5,0.3l-1.7,3.1c1.4,0.5,3,0.5,4.4,0L16.5,20L16.5,20z M19,18.3
	c-0.1,0-0.2,0-0.4,0c-0.3,0.1-0.4,0.5-0.3,0.8v0l1.3,3.2c1.3-0.8,2.3-2,2.8-3.5L19,18.3L19,18.3z"/>
</svg>
