<?xml version="1.0" encoding="iso-8859-1"?>
<!-- Generator: Adobe Illustrator 23.0.1, SVG Export Plug-In . SVG Version: 6.00 Build 0)  -->
<svg version="1.1" id="Layer_1" xmlns="http://www.w3.org/2000/svg" xmlns:xlink="http://www.w3.org/1999/xlink" x="0px" y="0px"
	 viewBox="0 0 512 512" style="enable-background:new 0 0 512 512;" xml:space="preserve">
<g id="XMLID_3210_">
	<g id="XMLID_3211_">
		<path id="XMLID_13531_" style="fill:#010101;" d="M377.859,359.117H115.368c-46.52,0-84.368-37.848-84.368-84.368
			c0-43.502,33.083-79.413,75.41-83.892c-0.27-3.447-0.413-6.687-0.413-9.847c0-77.539,63.085-140.624,140.624-140.624
			c66.754,0,124.567,47.902,137.686,112.703C438.181,156.424,481,201.324,481,256.008
			C480.984,312.852,434.718,359.117,377.859,359.117z M114.765,209.107c-35.577,0.016-65.023,29.462-65.023,65.643
			s29.446,65.627,65.627,65.627h262.491c46.52,0,84.368-37.848,84.368-84.368c0-46.393-37.642-84.177-84.003-84.368
			c-0.588,0.079-1.493,0.143-1.842,0.143c-4.669,0-8.624-3.431-9.275-8.052c-8.481-59.623-60.29-104.587-120.501-104.587
			c-67.199,0-121.867,54.668-121.867,121.867c0,5.257,0.445,10.832,1.414,17.566c0.381,2.7-0.429,5.416-2.192,7.465
			C121.88,208.456,117.909,209.488,114.765,209.107z"/>
	</g>
	<g id="XMLID_3212_">
		<path id="XMLID_13528_" style="fill:#010101;" d="M443.485,471.613H68.499C47.82,471.613,31,454.778,31,434.115
			c0-20.663,16.82-37.499,37.499-37.499h374.987c20.679,0,37.499,16.835,37.499,37.499
			C480.984,454.778,464.164,471.613,443.485,471.613z M68.499,415.373c-10.34,0-18.757,8.402-18.757,18.757
			s8.418,18.757,18.757,18.757h374.987c10.34,0,18.757-8.402,18.757-18.757s-8.418-18.757-18.757-18.757H68.499z"/>
	</g>
</g>
</svg>
